<?xml version="1.0" encoding="utf-8"?>
<!-- Generator: Adobe Illustrator 20.1.0, SVG Export Plug-In . SVG Version: 6.00 Build 0)  -->
<svg version="1.1" id="Layer_1" xmlns:sketch="http://www.bohemiancoding.com/sketch/ns"
	 xmlns="http://www.w3.org/2000/svg" xmlns:xlink="http://www.w3.org/1999/xlink" x="0px" y="0px" width="1477px" height="500px"
	 viewBox="0 0 1477 500" style="enable-background:new 0 0 1477 500;" xml:space="preserve">
<style type="text/css">
	.st0{fill:#FFFFFF;}
	.st1{fill:#FFE300;}
	.st2{fill:#FF4E54;}
	.st3{fill:#00F085;}
	.st4{fill:#00E0FF;}
</style>
<g>
	<path d="M82.4,180.4c1-0.6,2.2-1,3.6-1c1.7,0,3.5,0.5,5.3,1.5c4.2,2.3,56.8,31.5,86,47.7c0.2,0.1,0.5,0.2,0.7,0.4
		c0.2,0.1,0.5,0.3,0.7,0.4c0.2,0.1,0.5,0.3,0.7,0.4c0.2,0.1,0.5,0.3,0.7,0.4c0.2,0.1,0.5,0.3,0.7,0.4c0.2,0.1,0.5,0.3,0.7,0.4
		c0.2,0.1,0.5,0.3,0.7,0.4c0.2,0.1,0.5,0.3,0.7,0.4c0.2,0.1,0.5,0.3,0.7,0.4c0.2,0.1,0.5,0.3,0.7,0.4c0.2,0.1,0.5,0.3,0.7,0.4
		c0.2,0.1,0.5,0.3,0.7,0.4c0.2,0.1,0.5,0.3,0.7,0.4c0.2,0.1,0.5,0.3,0.7,0.4c0.2,0.1,0.5,0.3,0.7,0.4c0.2,0.1,0.5,0.3,0.7,0.4
		c0.2,0.1,0.5,0.3,0.7,0.4c0.2,0.1,0.5,0.3,0.7,0.4c0.2,0.1,0.5,0.3,0.7,0.4c0.2,0.1,0.5,0.3,0.7,0.4c0.2,0.1,0.5,0.3,0.7,0.4
		c0.2,0.1,0.5,0.3,0.7,0.4c0.2,0.1,0.5,0.3,0.7,0.4c0.2,0.1,0.5,0.3,0.7,0.4c0.2,0.1,0.5,0.3,0.7,0.4c0.2,0.1,0.5,0.3,0.7,0.4
		c0.3,0.1,0.5,0.3,0.7,0.4c0.3,0.2,0.5,0.3,0.7,0.4c0.2,0.1,0.3,0.2,0.3,0.2l0.3,0.2l0.7,0.4l0.7,0.4l0.7,0.4l0.7,0.4l0.7,0.4
		l0.7,0.4l0.7,0.4l0.7,0.4l0.7,0.4l0.7,0.4l0.7,0.4l0.7,0.4l0.7,0.4l0.7,0.4l0.7,0.4l0.7,0.4l0.7,0.4l0.7,0.4l0.7,0.4l0.7,0.4
		l0.7,0.4l0.7,0.4l0.7,0.4l0.7,0.4l0.7,0.4l0.7,0.4l0.7,0.4l0.7,0.4l0.7,0.4l0.7,0.4l0.7,0.4l0.7,0.4l0.7,0.4l0.7,0.4l0.7,0.4
		l0.7,0.4l0.7,0.4l0.7,0.4l0.7,0.4l0.7,0.4l0.7,0.4l0.7,0.4l0.7,0.4l0.7,0.4l0.7,0.4l0.7,0.4l0.7,0.4l0.7,0.4l0.7,0.4l0.7,0.4
		l0.7,0.4l0.7,0.4l0.7,0.4l0.7,0.4l0.7,0.4l0.7,0.4l0.7,0.4l0.7,0.4l0.7,0.4l0.7,0.4l0.7,0.4l0.7,0.4l0.7,0.4l0.7,0.4l0.7,0.4
		l0.7,0.4l0.7,0.4l0.7,0.4l0.7,0.4l0.7,0.4l0.7,0.4l0.7,0.4l0.7,0.4l0.7,0.4l0.7,0.4l0.7,0.4l0.7,0.4l0.7,0.4l0.7,0.4l0.7,0.4
		l0.1,0.1c0,0,0.2,0.1,0.5,0.3c0.2,0.1,0.4,0.2,0.7,0.4c0.2,0.1,0.4,0.2,0.7,0.4c0.2,0.1,0.4,0.2,0.7,0.4c0.2,0.1,0.4,0.2,0.7,0.4
		c0.2,0.1,0.4,0.2,0.7,0.4c0.2,0.1,0.4,0.2,0.7,0.4c0.2,0.1,0.4,0.2,0.7,0.4c0.2,0.1,0.4,0.2,0.7,0.4c0.2,0.1,0.4,0.2,0.7,0.4
		c0.2,0.1,0.4,0.2,0.7,0.4c0.2,0.1,0.4,0.2,0.7,0.4c0.2,0.1,0.4,0.2,0.7,0.4c0.2,0.1,0.4,0.2,0.7,0.4c0.2,0.1,0.4,0.2,0.7,0.4
		c0.2,0.1,0.4,0.2,0.7,0.4c0.2,0.1,0.4,0.2,0.7,0.4c0.2,0.1,0.4,0.2,0.7,0.4c0.2,0.1,0.4,0.2,0.7,0.4c0.2,0.1,0.4,0.3,0.7,0.4
		c0.2,0.1,0.4,0.2,0.7,0.4c0.2,0.1,0.4,0.2,0.7,0.4c0.2,0.1,0.4,0.2,0.7,0.4c0.2,0.1,0.4,0.2,0.7,0.4c0.2,0.1,0.4,0.2,0.7,0.4
		c0.2,0.1,0.4,0.3,0.7,0.4s0.4,0.2,0.7,0.4c0.2,0.1,0.4,0.2,0.7,0.4c0.2,0.1,0.4,0.2,0.7,0.4c0.2,0.1,0.4,0.2,0.7,0.4
		c0.2,0.1,0.4,0.3,0.7,0.4c0.2,0.1,0.4,0.3,0.7,0.4c0.2,0.1,0.5,0.3,0.7,0.4c0.2,0.1,0.4,0.3,0.7,0.4c0.2,0.1,0.4,0.2,0.7,0.4
		c0.2,0.1,0.5,0.3,0.7,0.4c0.2,0.1,0.4,0.2,0.7,0.4s0.4,0.2,0.7,0.4c0.2,0.1,0.5,0.3,0.7,0.4c0.2,0.1,0.5,0.3,0.7,0.4
		c0.2,0.1,0.4,0.2,0.7,0.4c0.2,0.1,0.5,0.3,0.7,0.4c0.2,0.1,0.5,0.3,0.7,0.4c0.2,0.1,0.5,0.3,0.7,0.4c0.2,0.1,0.4,0.2,0.7,0.4
		c0.2,0.1,0.5,0.3,0.7,0.4c0.2,0.1,0.5,0.3,0.7,0.4c0.2,0.1,0.5,0.3,0.7,0.4c0.2,0.1,0.5,0.3,0.7,0.4c0.2,0.1,0.5,0.3,0.7,0.4
		c0.2,0.1,0.5,0.3,0.7,0.4c0.2,0.1,0.5,0.3,0.7,0.4c0.2,0.1,0.5,0.3,0.7,0.4c0.2,0.1,0.5,0.2,0.7,0.4c0.2,0.1,0.5,0.3,0.7,0.4
		c0.2,0.1,0.5,0.3,0.7,0.4c0.2,0.1,0.5,0.3,0.7,0.4c0.2,0.1,0.5,0.2,0.7,0.4c0.2,0.1,0.5,0.3,0.7,0.4c0.2,0.1,0.5,0.3,0.7,0.4
		c0.2,0.1,0.5,0.3,0.7,0.4c0.2,0.1,0.5,0.3,0.7,0.4c0.2,0.1,0.5,0.3,0.7,0.4c0.2,0.1,0.5,0.3,0.7,0.4c0.2,0.1,0.5,0.3,0.7,0.4
		c0.2,0.1,0.5,0.3,0.7,0.4c0.2,0.1,0.5,0.3,0.7,0.4c0.2,0.1,0.5,0.3,0.7,0.4c0.2,0.1,0.5,0.3,0.7,0.4c0.2,0.1,0.5,0.3,0.7,0.4
		c0.2,0.1,0.5,0.3,0.7,0.4c0.2,0.1,0.5,0.3,0.7,0.4c0.2,0.1,0.5,0.3,0.7,0.4c0.2,0.1,0.5,0.3,0.7,0.4c0.2,0.1,0.5,0.3,0.7,0.4
		c0.2,0.1,0.5,0.3,0.7,0.4c0.2,0.1,0.5,0.3,0.7,0.4c0.3,0.1,0.5,0.3,0.7,0.4c0.1,0,0.2,0.1,0.2,0.1c0.2,0.1,0.3,0.2,0.5,0.2
		c0.2,0.1,0.4,0.3,0.6,0.4c0.2,0.1,0.4,0.3,0.6,0.4c0.2,0.2,0.4,0.3,0.5,0.5c0.2,0.2,0.3,0.3,0.5,0.5c0.2,0.2,0.3,0.4,0.4,0.5
		c0.1,0.2,0.3,0.4,0.4,0.6c0.1,0.2,0.2,0.4,0.3,0.6c0.1,0.2,0.1,0.5,0.2,0.7c0,0.3,0.1,0.5,0.1,0.8c0,0.3-0.1,0.6-0.1,0.9
		c-0.1,0.4-0.3,0.8-0.5,1.2c-0.2,0.4-0.5,0.8-0.9,1.2c-0.8,1.1-2,2.1-3.8,3.1c-3.1,1.6-17.7,9.7-30.7,16.9c-0.3,0.2-0.7,0.4-1,0.6
		c-0.3,0.2-0.7,0.4-1,0.6c-0.3,0.2-0.7,0.4-1,0.6c-0.3,0.2-0.7,0.4-1,0.6c-0.3,0.2-0.7,0.4-1,0.6c-0.3,0.2-0.7,0.4-1,0.6
		c-0.3,0.2-0.7,0.4-1,0.6c-0.3,0.2-0.7,0.4-1,0.6c-0.3,0.2-0.7,0.4-1,0.6c-0.3,0.2-0.7,0.4-1,0.6c-0.3,0.2-0.7,0.4-1,0.6
		c-0.3,0.2-0.7,0.4-1,0.6c-0.3,0.2-0.7,0.4-1,0.6c-0.3,0.2-0.7,0.4-1,0.6c-0.3,0.2-0.7,0.4-1,0.6c-0.3,0.2-0.7,0.4-1,0.5
		c-0.4,0.2-0.7,0.4-1,0.5c-0.4,0.2-0.7,0.4-1,0.5c-0.4,0.2-0.7,0.4-1,0.5c-0.4,0.2-0.7,0.4-1,0.5c-0.4,0.2-0.7,0.4-0.8,0.4
		c0,0,0,0,0,0c0,0,0,0,0,0l-0.2,0.1l-1,0.6l-1,0.6l-1,0.6l-1,0.6l-1,0.6l-1,0.6l-1,0.6l-1,0.6l-1,0.6l-1,0.6l-1,0.6l-1,0.6l-1,0.6
		l-1,0.6l-1,0.6l-1,0.6l-1,0.6l-1,0.6l-1,0.6l-1,0.6l-1,0.6l-1,0.6l-1,0.6l-1,0.6l-1,0.6l-1,0.6l-1,0.6l-1,0.6l-1,0.6l-1,0.6l-1,0.6
		l-1,0.6l-1,0.6l-1,0.6l-1,0.6l-1,0.6l-1,0.6l-1,0.6l-1,0.6l-1,0.6l-1,0.6l-1,0.6l-1,0.6l-1,0.6l-1,0.6l-1,0.6l-0.6,0.3l-0.4,0.2
		l-1,0.6l-1,0.6l-1,0.6l-1,0.6l-1,0.6l-1,0.6l-1,0.6l-0.2,0.1c0,0-0.3,0.2-0.8,0.5c-0.3,0.2-0.6,0.3-1,0.6c-0.3,0.2-0.6,0.4-1,0.6
		c-0.3,0.2-0.6,0.4-1,0.6c-0.3,0.2-0.6,0.4-1,0.6c-0.3,0.2-0.7,0.4-1,0.6c-0.3,0.2-0.7,0.4-1,0.6c-0.3,0.2-0.7,0.4-1,0.6
		c-0.3,0.2-0.7,0.4-1,0.6c-0.3,0.2-0.7,0.4-1,0.6c-0.3,0.2-0.7,0.4-1,0.6c-0.3,0.2-0.7,0.4-1,0.6c-0.3,0.2-0.7,0.4-1,0.6
		c-0.3,0.2-0.7,0.4-1,0.6c-0.3,0.2-0.7,0.4-1,0.6c-0.3,0.2-0.7,0.4-1,0.6c-0.3,0.2-0.7,0.4-1,0.6c-0.3,0.2-0.7,0.4-1,0.6
		c-0.3,0.2-0.7,0.4-1,0.6c-0.3,0.2-0.7,0.4-1,0.6c-0.3,0.2-0.7,0.4-1,0.6c-0.3,0.2-0.7,0.4-1,0.6c-0.3,0.2-0.7,0.4-1,0.6
		c-0.3,0.2-0.7,0.4-1,0.6c-0.3,0.2-0.7,0.4-1,0.6c-0.3,0.2-0.7,0.4-1,0.6c-0.3,0.2-0.7,0.4-1,0.6c-0.3,0.2-0.7,0.4-1,0.6
		c-0.3,0.2-0.7,0.4-1,0.6c-0.3,0.2-0.7,0.4-1,0.6c-0.3,0.2-0.7,0.4-1,0.6c-0.3,0.2-0.7,0.4-1,0.6c-0.3,0.2-0.7,0.4-1,0.6
		s-0.7,0.4-1,0.6c-0.3,0.2-0.7,0.4-1,0.6c-0.3,0.2-0.7,0.4-1,0.6c-0.3,0.2-0.7,0.4-1,0.6c-0.3,0.2-0.7,0.4-1,0.6s-0.7,0.4-1,0.6
		c-0.3,0.2-0.7,0.4-1,0.6c-0.3,0.2-0.7,0.4-1,0.6c-0.3,0.2-0.7,0.4-1,0.6c-0.3,0.2-0.7,0.4-1,0.6c-0.3,0.2-0.7,0.4-1,0.6
		c-0.3,0.2-0.7,0.4-1,0.6c-0.3,0.2-0.7,0.4-1,0.6c-0.3,0.2-0.7,0.4-1,0.6s-0.7,0.4-1,0.6c-0.3,0.2-0.7,0.4-1,0.6
		c-0.3,0.2-0.7,0.4-1,0.6s-0.7,0.4-1,0.6c-0.3,0.2-0.7,0.4-1,0.6c-0.3,0.2-0.7,0.4-1,0.6c-0.3,0.2-0.7,0.4-1,0.6
		c-0.3,0.2-0.7,0.4-1,0.6c-0.3,0.2-0.7,0.4-1,0.6s-0.7,0.4-1,0.6c-0.3,0.2-0.7,0.4-1,0.6c-0.3,0.2-0.7,0.4-1,0.6
		c-0.3,0.2-0.7,0.4-1,0.6c-0.3,0.2-0.7,0.4-1,0.6c-0.3,0.2-0.7,0.4-1,0.6c-0.3,0.2-0.7,0.4-1,0.6c-0.3,0.2-0.7,0.4-1,0.6
		c-0.3,0.2-0.7,0.4-1,0.6c-0.3,0.2-0.7,0.4-1,0.6s-0.7,0.4-1,0.6c-0.3,0.2-0.7,0.4-1,0.6c-0.3,0.2-0.7,0.4-1,0.6
		c-0.3,0.2-0.7,0.4-1,0.6c-0.3,0.2-0.7,0.4-1,0.6c-0.3,0.2-0.7,0.4-1,0.6c-0.3,0.2-0.7,0.4-1,0.6s-0.7,0.4-1,0.6
		c-0.3,0.2-0.7,0.4-1,0.6c-0.3,0.2-0.7,0.4-1,0.6c-0.3,0.2-0.7,0.4-1,0.6s-0.7,0.4-1,0.6c-0.3,0.2-0.7,0.4-1,0.6
		c-0.3,0.2-0.7,0.4-1,0.6c-0.3,0.2-0.7,0.4-1,0.6c-0.3,0.2-0.7,0.4-1,0.6c-0.3,0.2-0.7,0.4-1,0.6c-0.3,0.2-0.7,0.4-1,0.6
		c-0.3,0.2-0.7,0.4-1,0.6c-0.3,0.2-0.7,0.4-1,0.6c-0.3,0.2-0.7,0.4-1,0.6c-0.3,0.2-0.7,0.4-1,0.6c-0.3,0.2-0.7,0.4-1,0.6
		c-0.3,0.2-0.7,0.4-1,0.6c-0.3,0.2-0.7,0.4-1,0.6c-0.3,0.2-0.7,0.4-1,0.6c-0.3,0.2-0.7,0.4-1,0.6c-0.3,0.2-0.7,0.4-1,0.6
		c-0.3,0.2-0.7,0.4-1,0.6c-0.3,0.2-0.7,0.4-1,0.6c-0.3,0.2-0.7,0.4-1,0.6c-0.3,0.2-0.7,0.4-1,0.6c-0.3,0.2-0.7,0.4-1,0.6
		c-0.3,0.2-0.7,0.4-1,0.6c-0.3,0.2-0.7,0.4-1,0.6c-0.3,0.2-0.7,0.4-1,0.6c-0.3,0.2-0.7,0.4-1,0.6c-0.3,0.2-0.7,0.4-1,0.6
		c-0.4,0.2-0.7,0.4-1,0.6c-0.4,0.2-0.7,0.4-1,0.6c-0.4,0.2-0.7,0.4-1,0.6c-0.4,0.2-0.8,0.4-1,0.6c-0.1,0-0.2,0.1-0.2,0.1
		c-0.3,0.1-0.5,0.3-0.8,0.4c-0.4,0.2-0.7,0.3-1.1,0.4c-0.4,0.1-0.8,0.2-1.2,0.2c-0.2,0-0.4,0-0.6,0c-2.9,0-5.1-2.2-5.1-5.9l0,0v-1
		l0,0v0v-2.1v-2.1v-2.1v-2.1V413v-2.1v-2.1v-2.1v-2.1v-2.1v-2.1v-2.1v-2.1v-2.1v-2.1v-2.1v-2.1v-2.1v-2.1V381v-2.1v-2.1v-2.1v-2.1
		v-2.1v-2.1v-2.1v-2.1v-2.1v-2.1v-2.1v-2.1v-2.1v-2.1V349v-2.1v-2.1v-2.1v-2.1v-2.1v-2.1V334v-2.1v-2.1v-2.1v-2.1v-2.1v-2.1v-2.1
		V317v-2.1v-2.1v-2.1v-2.1v-2.1v-2.1V302v-2.1v-2.1v-2.1v-2.1v-2.1v-2.1v-2.1V285v-2.1v-2.1v-2.1v-2.1v-2.1v-2.1V270v-2.1v-2.1v-2.1
		v-2.1v-2.1v-2.1v-2.1V253v-2.1v-2.1v-2.1v-2.1v-2.1v-2.1V238v-2.1v-2.1v-2.1v-2.1v-2.1v-2.1v-2.1V221v-2.1v-2.1v-2.1v-2.1v-2.1
		v-2.1V206v-2.1v-2.1v-2.1v-2.1v-2.1v-2.1v-2.1v-2.1v-2.1v-0.3l0,0l0,0c0,0,0,0,0-0.1c0,0,0,0,0,0c0-0.6,0.1-1.2,0.1-1.7
		c0.1-0.7,0.3-1.3,0.6-1.9c0.3-0.6,0.7-1.2,1.1-1.6C81.5,180.9,81.9,180.6,82.4,180.4 M1403.7,5H79.3C46.9,5,20.7,31.2,20.7,63.6
		v370.9c0,32.3,26.2,58.6,58.6,58.6h1324.4c32.3,0,58.6-26.2,58.6-58.6V63.6C1462.3,31.2,1436.1,5,1403.7,5"/>
	<path class="st0" d="M1005.1,346.5l-10.8,10.3c-2.5,1.4-5,3-7.5,4.1c-7.5,3.4-15.1,4.3-21.9,4.3c-7.2,0-18.5-0.5-30.1-8.9
		c-16-11.4-23-30.9-23-47.9c0-35.2,28.5-52.5,51.8-52.5c8.1,0,16.5,2,23.3,6.4c11.3,7.5,14.2,17.3,15.8,22.5l-53.1,21.6l-17.4,1.4
		c5.6,28.9,25.1,45.7,46.5,45.7c10.7,0,18.7-3.5,26-7.2C1004.7,346.2,1006.2,345.4,1005.1,346.5z M972.7,288.5
		c4.3-1.6,6.5-3,6.5-6.1c0-9.1-10.1-19.7-22.1-19.7c-8.9,0-25.7,7.1-25.7,31.8c0,3.9,0.5,8,0.7,12.1L972.7,288.5z"/>
	<path class="st0" d="M894.3,345.2c0,8.8,1.6,10.2,9,10.9c3.9,0.5,7.7,0.7,11.5,1.1l-8.3,5h-39.7c5.2-6.8,6.1-7.5,6.1-12v-5.1
		l-0.1-134.8h-17.5l16.9-8.2h32.2c-7,4.1-9.1,6.6-10,14.5L894.3,345.2"/>
	<path class="st0" d="M832.7,267c5.2,4.3,15.9,13.4,15.9,30.6c0,16.8-9.4,24.7-18.9,32.2c-2.9,2.9-6.3,6.1-6.3,11.1
		c0,5,3.4,7.7,5.8,9.8l8.1,6.3c9.9,8.4,18.9,16.1,18.9,31.8c0,21.3-20.5,42.8-59.2,42.8c-32.6,0-48.3-15.6-48.3-32.4
		c0-8.2,4-19.7,17.3-27.6c13.9-8.6,32.8-9.7,42.9-10.4c-3.2-4.1-6.8-8.4-6.8-15.4c0-3.8,1.1-6.1,2.3-8.8c-2.5,0.2-4.9,0.5-7.2,0.5
		c-23.8,0-37.3-17.9-37.3-35.6c0-10.4,4.7-22,14.4-30.4c12.8-10.6,28.1-12.5,40.3-12.5h46.3l-14.4,8.2H832.7z M816.9,367.3
		c-1.9-0.2-3-0.2-5.2-0.2c-2.1,0-14.3,0.5-23.8,3.7c-5,1.9-19.5,7.4-19.5,23.8c0,16.4,15.7,28.2,39.9,28.2
		c21.8,0,33.3-10.6,33.3-24.9C841.5,386,834.1,379.8,816.9,367.3z M823.2,323.7c5.2-5.2,5.6-12.4,5.6-16.5
		c0-16.3-9.6-41.6-28.2-41.6c-5.8,0-12.1,2.9-15.7,7.5c-3.8,4.7-4.9,10.8-4.9,16.7c0,15.1,8.7,40.2,28,40.2
		C813.6,330,819.7,327.3,823.2,323.7z"/>
	<path class="st0" d="M692.5,365.1c-35.8,0-55-28.3-55-53.8c0-29.9,24.1-55.5,58.4-55.5c33.1,0,53.9,26.3,53.9,53.9
		C749.8,336.6,729.3,365.1,692.5,365.1z M720.6,346.7c5.5-7.3,6.8-16.5,6.8-25.4c0-20.2-9.5-58.6-37.5-58.6c-7.5,0-15,3-20.4,7.8
		c-8.8,8-10.4,18.1-10.4,28c0,22.6,11,59.9,38.4,59.9C706.3,358.3,715.3,354,720.6,346.7z"/>
	<path class="st0" d="M572.5,365.1c-35.8,0-55-28.3-55-53.8c0-29.9,24.1-55.5,58.4-55.5c33.1,0,53.9,26.3,53.9,53.9
		C629.7,336.6,609.3,365.1,572.5,365.1z M600.5,346.7c5.4-7.3,6.8-16.5,6.8-25.4c0-20.2-9.5-58.6-37.5-58.6c-7.5,0-14.9,3-20.4,7.8
		c-8.8,8-10.4,18.1-10.4,28c0,22.6,11.1,59.9,38.5,59.9C586.3,358.3,595.3,354,600.5,346.7z"/>
	<path class="st0" d="M502.6,358.4l-30.3,7c-12.3,2-23.3,3.7-35,3.7c-58.5,0-80.8-43.4-80.8-77.3c0-41.4,31.6-79.9,85.7-79.9
		c11.4,0,22.5,1.7,32.5,4.4c15.9,4.5,23.3,10,28,13.3L485,246.5l-7.4,1.7l5.3-8.5c-7.2-7.1-20.4-20.1-45.4-20.1
		c-33.5,0-58.7,25.6-58.7,63c0,40.2,28.8,77.9,75.1,77.9c13.6,0,20.6-2.7,26.9-5.3v-34.4l-32,1.7l17-9.2h45l-5.5,5.3
		c-1.5,1.3-1.7,1.7-2.1,3.4c-0.2,1.9-0.4,8.1-0.4,10.3V358.4"/>
	<path class="st0" d="M1070.6,347.5v57.6h-11.4V258.5h11.4v16.7c7.4-10.8,21-19.4,36.8-19.4c28.3,0,47.4,21.5,47.4,55.6
		c0,33.9-19.1,55.8-47.4,55.8C1092.5,367.3,1079.2,359.6,1070.6,347.5z M1143.1,312.3c0-26-13.4-45.8-37.2-45.8
		c-14.8,0-28.9,11.7-35,21.9v47.4c6.1,10.2,20.3,22.4,35,22.4C1129.7,358.3,1143.1,338.3,1143.1,312.3z"/>
	<rect x="1170.5" y="217.8" class="st0" width="11.7" height="147.4"/>
	<path class="st0" d="M1309.5,395c2.4,1.1,6.6,1.8,9.3,1.8c7,0,11.9-2.9,16.2-13l8.3-18.9l-45-107.1h12.7l38.6,92.8l38.2-92.8h12.9
		l-54.9,129.6c-5.7,13.3-14.7,19.8-27,19.8c-3.7,0-8.6-0.7-11.4-1.5L1309.5,395"/>
	<path class="st0" d="M1277.3,365c-0.8-3.7-1.3-7-1.8-9.7c-0.3-2.7-0.6-5.5-0.6-8.3c-3.9,5.8-9.5,10.6-16.6,14.4
		c-7.1,3.8-13.9,5.7-23.2,5.7c-11.2,0-19.9-2.8-26.1-8.4c-6.2-5.6-9.3-13.2-9.3-22.7c0-9.6,4.5-17.3,13.5-23.3
		c9-6,20.6-8.9,34.9-8.9h26.8v-13.3c0-7.6-2.6-13.7-7.8-18c-5.2-4.4-12.5-6.6-22-6.6c-8.7,0-15.7,2-21,5.9c-5.3,4-8,9-8,15h-11.8
		l-0.2-0.6c-0.4-8.1,3.3-15.1,11.1-21.3c7.8-6.1,18-9.2,30.6-9.2c12.5,0,22.7,3,30.3,9.1c7.6,6,11.5,14.6,11.5,25.9v52.7
		c0,3.8,0.2,7.4,0.7,11c0.5,3.6,1.3,7.1,2.3,10.6H1277.3z M1236.5,357.3c9.7,0,16.8-2.2,23.9-6.5c7.1-4.3,12-10,14.5-16.8v-20.6
		H1248c-10.3,0-18.8,2.3-25.5,6.9c-6.7,4.6-10.1,10.2-10.1,16.7c0,6.1,2.2,11,6.4,14.7C1223.1,355.5,1229,357.3,1236.5,357.3z"/>
	<path class="st0" d="M352.6,118.5c0-21,16.8-34.5,37.7-34.5c14,0,23.1,6.2,28.8,13.8l-10.2,5.5c-3.9-5-10.7-8.9-18.6-8.9
		c-14.2,0-24.7,10-24.7,24.1c0,13.9,10.5,24.1,24.7,24.1c7.3,0,13.8-3.1,17-6v-10.3h-21.5V116h34v24.9c-7,7.3-17.1,12.2-29.5,12.2
		C369.4,153.2,352.6,139.4,352.6,118.5"/>
	<polyline class="st0" points="436,152.1 436,85 485.9,85 485.9,95.4 448.8,95.4 448.8,112.7 485.1,112.7 485.1,123 448.8,123 
		448.8,141.8 485.9,141.8 485.9,152.1 436,152.1 	"/>
	<polyline class="st0" points="519.8,152.1 519.8,95.4 498.1,95.4 498.1,85 554.1,85 554.1,95.4 532.4,95.4 532.4,152.1 
		519.8,152.1 	"/>
	<rect x="598.8" y="85" class="st0" width="12.2" height="67.2"/>
	<polyline class="st0" points="646,152.1 646,95.4 624.3,95.4 624.3,85 680.2,85 680.2,95.4 658.5,95.4 658.5,152.1 646,152.1 	"/>
	<path class="st0" d="M721.9,118.6c0-20,15.4-34.6,37.1-34.6c21.7,0,37.1,14.6,37.1,34.6c0,20-15.5,34.6-37.1,34.6
		C737.3,153.2,721.9,138.5,721.9,118.6z M783,118.1c0-13.7-9.4-23.9-23.9-23.9c-14.6,0-23.9,10.2-23.9,23.9
		c0,13.6,9.3,23.9,23.9,23.9C773.6,142,783,131.6,783,118.1z"/>
	<polyline class="st0" points="860.4,152.1 823,104.1 823,152.1 810.5,152.1 810.5,85 823.3,85 860,131.5 860,85 872.5,85 
		872.5,152.1 860.4,152.1 	"/>
</g>
<sodipodi:namedview  bordercolor="#666666" borderopacity="1" fit-margin-bottom="0" fit-margin-left="0" fit-margin-right="0" fit-margin-top="0" gridtolerance="10" guidetolerance="10" id="namedview51" inkscape:current-layer="Layer_2" inkscape:cx="236.78482" inkscape:cy="65.546814" inkscape:pageopacity="0" inkscape:pageshadow="2" inkscape:window-height="706" inkscape:window-maximized="1" inkscape:window-width="1366" inkscape:window-x="-8" inkscape:window-y="-8" inkscape:zoom="1.8773332" objecttolerance="10" pagecolor="#ffffff" showgrid="false">
	</sodipodi:namedview>
<g id="g3042" transform="translate(0,7.0250703e-6)">
	<path id="path16" inkscape:connector-curvature="0" class="st1" d="M248.1,343.1c30.2-16.5,53.2-29.1,55.3-30.3
		c6.3-3.4,12.8-12.2,0-19.1c-4.1-2.2-26.5-14.5-55.3-30.2l-39.6,39.9C208.5,303.4,248.1,343.1,248.1,343.1z"/>
	<path id="path23" inkscape:connector-curvature="0" class="st2" d="M208.5,303.4L81.8,431.1c2.9,0.4,6.3-0.4,10.3-2.6
		c8.2-4.5,96.2-52.7,156.1-85.4L208.5,303.4L208.5,303.4z"/>
	<path id="path30" inkscape:connector-curvature="0" class="st3" d="M208.5,303.4l39.6-39.9c0,0-147.2-80.3-156.1-85.1
		c-3.4-1.8-7.1-2.5-10.4-1.8L208.5,303.4z"/>
	<path id="path37" inkscape:connector-curvature="0" class="st4" d="M208.5,303.4L81.7,176.6c-5.2,1.2-9.5,5.7-9.5,14.8
		c0,14.8,0,212,0,224.5c0,8.6,3.4,14.6,9.6,15.2L208.5,303.4z"/>
</g>
</svg>
